<svg width="40" height="40" viewBox="0 0 40 40" xmlns="http://www.w3.org/2000/svg">
  <path fill-rule="evenodd" clip-rule="evenodd" d="M25.4122 14.5895C25.7373 14.9146 25.7373 15.4417 25.4122 15.7668L15.7669 25.4121C15.4418 25.7372 14.9147 25.7372 14.5896 25.4121C14.2644 25.087 14.2644 24.5599 14.5896 24.2348L24.2348 14.5895C24.56 14.2644 25.0871 14.2644 25.4122 14.5895Z"/>
  <path fill-rule="evenodd" clip-rule="evenodd" d="M14.5895 14.5886C14.9147 14.2634 15.4418 14.2634 15.7669 14.5886L25.4122 24.2338C25.7373 24.559 25.7373 25.0861 25.4122 25.4112C25.0871 25.7363 24.5599 25.7363 24.2348 25.4112L14.5895 15.7659C14.2644 15.4408 14.2644 14.9137 14.5895 14.5886Z"/>
</svg>
